<svg xmlns="http://www.w3.org/2000/svg" version="1.1" xmlns:xlink="http://www.w3.org/1999/xlink" width="200" height="200"><svg xmlns="http://www.w3.org/2000/svg" version="1.1" xmlns:xlink="http://www.w3.org/1999/xlink" width="200" height="200"><svg xmlns="http://www.w3.org/2000/svg" version="1.1" xmlns:xlink="http://www.w3.org/1999/xlink" viewBox="0 0 200 200"><rect width="200" height="200" fill="url('#gradient')"></rect><defs><linearGradient id="gradient" gradientTransform="rotate(45 0.5 0.5)"><stop offset="0%" stop-color="#11255b"></stop><stop offset="100%" stop-color="#050816"></stop></linearGradient></defs><g><g fill="#f9fafb" transform="matrix(1.760963026655202,0,0,1.760963026655202,8.110331577262485,112.51601695604398)" stroke="#bfdbfe" stroke-width="0.15"><path d="M5.75 0L1.07 0L1.07-14.22L5.65-14.22Q7.54-14.22 9.04-13.36Q10.55-12.51 11.39-10.95Q12.24-9.39 12.25-7.46L12.25-7.46L12.25-6.81Q12.25-4.85 11.42-3.31Q10.60-1.76 9.10-0.88Q7.60-0.01 5.75 0L5.75 0ZM5.65-11.57L4.50-11.57L4.50-2.64L5.69-2.64Q7.17-2.64 7.96-3.69Q8.75-4.74 8.75-6.81L8.75-6.81L8.75-7.42Q8.75-9.48 7.96-10.53Q7.17-11.57 5.65-11.57L5.65-11.57ZM22.82-8.57L22.82-6.03L17.43-6.03L17.43-2.64L23.80-2.64L23.80 0L14.00 0L14.00-14.22L23.82-14.22L23.82-11.57L17.43-11.57L17.43-8.57L22.82-8.57ZM30.97 0L25.20 0L25.20-14.22L30.30-14.22Q33.05-14.22 34.48-13.21Q35.91-12.21 35.91-10.29L35.91-10.29Q35.91-9.19 35.40-8.41Q34.89-7.63 33.91-7.26L33.91-7.26Q35.02-6.96 35.62-6.16Q36.21-5.36 36.21-4.21L36.21-4.21Q36.21-2.12 34.89-1.07Q33.56-0.02 30.97 0L30.97 0ZM31.03-6.04L28.62-6.04L28.62-2.64L30.87-2.64Q31.80-2.64 32.29-3.06Q32.79-3.49 32.79-4.26L32.79-4.26Q32.79-6.04 31.03-6.04L31.03-6.04ZM28.62-11.57L28.62-8.29L30.41-8.29Q31.53-8.30 32.01-8.70Q32.49-9.10 32.49-9.88L32.49-9.88Q32.49-10.78 31.97-11.18Q31.46-11.57 30.30-11.57L30.30-11.57L28.62-11.57ZM41.75-14.22L41.75 0L38.33 0L38.33-14.22L41.75-14.22ZM55.01-14.22L55.01-11.57L50.74-11.57L50.74 0L47.31 0L47.31-11.57L43.13-11.57L43.13-14.22L55.01-14.22ZM59.88-14.22L59.88-2.64L65.85-2.64L65.85 0L56.46 0L56.46-14.22L59.88-14.22ZM76.11-8.57L76.11-6.03L70.72-6.03L70.72-2.64L77.09-2.64L77.09 0L67.29 0L67.29-14.22L77.11-14.22L77.11-11.57L70.72-11.57L70.72-8.57L76.11-8.57ZM90.36-14.22L90.36 0L86.95 0L81.91-8.85L81.91 0L78.49 0L78.49-14.22L81.91-14.22L86.94-5.37L86.94-14.22L90.36-14.22ZM99.86-3.78L99.86-3.78Q99.86-4.53 99.33-4.95Q98.80-5.37 97.46-5.82Q96.12-6.27 95.27-6.69L95.27-6.69Q92.51-8.05 92.51-10.42L92.51-10.42Q92.51-11.60 93.20-12.50Q93.89-13.41 95.15-13.91Q96.41-14.41 97.98-14.41L97.98-14.41Q99.51-14.41 100.73-13.87Q101.94-13.32 102.62-12.31Q103.29-11.30 103.29-10L103.29-10L99.87-10Q99.87-10.87 99.34-11.35Q98.81-11.83 97.90-11.83L97.90-11.83Q96.98-11.83 96.45-11.42Q95.92-11.02 95.92-10.39L95.92-10.39Q95.92-9.84 96.50-9.40Q97.09-8.96 98.56-8.48Q100.04-8.01 100.99-7.46L100.99-7.46Q103.29-6.13 103.29-3.80L103.29-3.80Q103.29-1.93 101.88-0.87Q100.48 0.20 98.03 0.20L98.03 0.20Q96.30 0.20 94.90-0.42Q93.50-1.04 92.79-2.12Q92.08-3.20 92.08-4.61L92.08-4.61L95.52-4.61Q95.52-3.47 96.11-2.92Q96.70-2.38 98.03-2.38L98.03-2.38Q98.88-2.38 99.37-2.75Q99.86-3.12 99.86-3.78Z"></path></g></g></svg></svg><style>@media (prefers-color-scheme: light) { :root { filter: none; } }
@media (prefers-color-scheme: dark) { :root { filter: none; } }
</style></svg>